<svg width="24" height="24" viewBox="0 0 24 24" fill="none" xmlns="http://www.w3.org/2000/svg">
<path fill-rule="evenodd" clip-rule="evenodd" d="M12.0299 0.333496C5.60272 0.333496 0.393555 5.54266 0.393555 11.9698C0.393555 17.1102 3.72672 21.4723 8.35139 23.0123C8.93355 23.1173 9.14355 22.7592 9.14355 22.4512C9.14355 22.1747 9.13422 21.442 9.13072 20.4725C5.89322 21.1748 5.20955 18.9115 5.20955 18.9115C4.68222 17.5675 3.91805 17.2093 3.91805 17.2093C2.86222 16.4872 3.99855 16.5035 3.99855 16.5035C5.16755 16.5852 5.78005 17.7028 5.78005 17.7028C6.81839 19.4808 8.50539 18.9675 9.16572 18.67C9.27189 17.9175 9.57522 17.4042 9.90655 17.1137C7.32355 16.8208 4.60755 15.8222 4.60755 11.362C4.60755 10.0938 5.06139 9.05316 5.80222 8.24116C5.68439 7.946 5.28189 6.76183 5.91772 5.16116C5.91772 5.16116 6.89422 4.84733 9.11672 6.35233C10.0659 6.09411 11.045 5.96231 12.0287 5.96033C13.0124 5.96193 13.9916 6.09374 14.9407 6.35233C17.1644 4.84616 18.1397 5.16116 18.1397 5.16116C18.7756 6.76183 18.3766 7.946 18.2552 8.24116C19.0019 9.05316 19.4499 10.0927 19.4499 11.362C19.4499 15.8338 16.7316 16.8162 14.1392 17.1043C14.5534 17.4637 14.9267 18.173 14.9267 19.258C14.9267 20.8143 14.9127 22.0697 14.9127 22.4512C14.9127 22.7627 15.1204 23.1243 15.7142 23.01C20.3366 21.4677 23.6662 17.109 23.6662 11.9698C23.6662 5.54266 18.4571 0.333496 12.0299 0.333496Z" fill="black"/>
</svg>
