<svg width="22" height="22" viewBox="0 0 22 22" fill="none" xmlns="http://www.w3.org/2000/svg">
<path d="M21.4378 6.68936C21.426 5.80575 21.2606 4.93093 20.9489 4.10403C20.6787 3.40654 20.2659 2.77309 19.737 2.24416C19.208 1.71523 18.5746 1.30245 17.8771 1.03219C17.0608 0.725777 16.1985 0.560092 15.3268 0.542194C14.2044 0.492027 13.8486 0.478027 10.9996 0.478027C8.15059 0.478027 7.78543 0.478027 6.67126 0.542194C5.79995 0.560224 4.938 0.725907 4.12209 1.03219C3.42449 1.30226 2.79095 1.71498 2.262 2.24393C1.73305 2.77289 1.32033 3.40643 1.05026 4.10403C0.74323 4.91968 0.577904 5.78182 0.561427 6.65319C0.51126 7.77669 0.496094 8.13253 0.496094 10.9815C0.496094 13.8305 0.496094 14.1945 0.561427 15.3099C0.578927 16.1825 0.743427 17.0435 1.05026 17.8614C1.32078 18.5588 1.73381 19.192 2.26294 19.7208C2.79207 20.2495 3.42567 20.662 4.12326 20.932C4.93693 21.2508 5.79903 21.4283 6.67243 21.457C7.79593 21.5072 8.15176 21.5224 11.0008 21.5224C13.8498 21.5224 14.2149 21.5224 15.3291 21.457C16.2008 21.4399 17.0632 21.2746 17.8794 20.9682C18.5767 20.6976 19.21 20.2847 19.7389 19.7558C20.2678 19.227 20.6807 18.5937 20.9513 17.8964C21.2581 17.0797 21.4226 16.2187 21.4401 15.3449C21.4903 14.2225 21.5054 13.8667 21.5054 11.0165C21.5031 8.16753 21.5031 7.80586 21.4378 6.68936ZM10.9926 16.3692C8.01293 16.3692 5.59909 13.9554 5.59909 10.9757C5.59909 7.99603 8.01293 5.58219 10.9926 5.58219C12.423 5.58219 13.7949 6.15044 14.8064 7.16191C15.8179 8.17339 16.3861 9.54525 16.3861 10.9757C16.3861 12.4061 15.8179 13.778 14.8064 14.7895C13.7949 15.801 12.423 16.3692 10.9926 16.3692ZM16.6008 6.64036C16.4356 6.64051 16.2719 6.60809 16.1193 6.54494C15.9666 6.48179 15.8279 6.38916 15.7111 6.27234C15.5943 6.15553 15.5017 6.01682 15.4385 5.86416C15.3754 5.71151 15.3429 5.5479 15.3431 5.38269C15.3431 5.21761 15.3756 5.05415 15.4388 4.90163C15.502 4.74911 15.5946 4.61053 15.7113 4.4938C15.828 4.37707 15.9666 4.28448 16.1191 4.2213C16.2716 4.15813 16.4351 4.12561 16.6002 4.12561C16.7653 4.12561 16.9287 4.15813 17.0812 4.2213C17.2338 4.28448 17.3723 4.37707 17.4891 4.4938C17.6058 4.61053 17.6984 4.74911 17.7616 4.90163C17.8247 5.05415 17.8573 5.21761 17.8573 5.38269C17.8573 6.07803 17.2949 6.64036 16.6008 6.64036Z" fill="black"/>
</svg>
