<svg width="22" height="22" viewBox="0 0 22 22" fill="none" xmlns="http://www.w3.org/2000/svg">
<path d="M20.3333 0.5H1.66667C1.35725 0.5 1.0605 0.622916 0.841709 0.841709C0.622916 1.0605 0.5 1.35725 0.5 1.66667V20.3333C0.5 20.6428 0.622916 20.9395 0.841709 21.1583C1.0605 21.3771 1.35725 21.5 1.66667 21.5H20.3333C20.6428 21.5 20.9395 21.3771 21.1583 21.1583C21.3771 20.9395 21.5 20.6428 21.5 20.3333V1.66667C21.5 1.35725 21.3771 1.0605 21.1583 0.841709C20.9395 0.622916 20.6428 0.5 20.3333 0.5ZM6.72883 18.3932H3.6115V8.3715H6.72883V18.3932ZM5.17017 7.003C4.69119 7.003 4.23182 6.81273 3.89313 6.47404C3.55444 6.13534 3.36417 5.67598 3.36417 5.197C3.36417 4.71802 3.55444 4.25866 3.89313 3.91997C4.23182 3.58127 4.69119 3.391 5.17017 3.391C5.64915 3.391 6.10851 3.58127 6.4472 3.91997C6.78589 4.25866 6.97617 4.71802 6.97617 5.197C6.97617 5.67598 6.78589 6.13534 6.4472 6.47404C6.10851 6.81273 5.64915 7.003 5.17017 7.003ZM18.3943 18.3932H15.2805V13.52C15.2805 12.358 15.2595 10.8635 13.6612 10.8635C12.0395 10.8635 11.7933 12.1305 11.7933 13.4383V18.3943H8.68183V8.37267H11.6685V9.74233H11.7117C12.1258 8.95483 13.1432 8.12417 14.6563 8.12417C17.811 8.12417 18.3932 10.1985 18.3932 12.8982L18.3943 18.3932Z" fill="black"/>
</svg>
