<svg width="144" height="121" viewBox="0 0 144 121" fill="none" xmlns="http://www.w3.org/2000/svg">
<style>
    path {
        fill: black;
    }
    @media (prefers-color-scheme: dark) {
        path {
            fill: white;
        }
    }
</style>
<path d="M139.923 58.8689C144.584 70.3353 143.621 83.2793 143.984 95.4625C144.087 102.371 143.699 108.97 143.046 115.888C142.752 119.529 140.964 120.906 137.266 120.314C132.165 119.807 127.339 117.807 122.963 115.165C115.564 110.663 109.225 104.39 105.436 96.5425C100.063 85.0698 100.354 72.0977 99.769 59.9176C99.5752 53.1936 99.5596 46.501 99.744 39.777C99.694 37.326 101.394 36.0081 103.711 35.7483C107.871 34.9594 111.916 35.9799 115.761 37.448C126.135 41.4611 135.638 47.8658 139.876 58.7562L139.923 58.8689Z" />
<path d="M92.7646 0.457098C76.2853 -3.07392 58.0462 14.506 52.8698 28.5112C49.2157 35.5763 49.7784 43.8404 50.0785 51.9136C50.7193 72.8148 52.1446 94.1011 51.4101 114.398C50.7755 122.844 64.3947 118.793 68.8115 116.971C72.0686 115.644 75.26 113.337 77.6982 110.629C85.0907 104.441 89.5669 96.2736 92.0738 88.0314C94.0024 79.5638 93.521 70.7269 93.5835 62.0778C93.3741 42.8043 92.3238 23.703 93.9055 5.1213C93.968 3.57491 94.2243 1.56837 92.8552 0.519705L92.7646 0.460229V0.457098Z" />
<path d="M41.4416 62.3314C43.7078 70.993 42.892 79.5294 41.8167 88.1253C40.8039 97.4788 40.6195 107.321 41.5448 117.169C40.8289 125.013 26.5721 118.699 22.5711 116.715C17.848 114.354 13.6781 111.096 10.1053 107.227C8.01414 104.901 6.59502 102.243 5.01024 99.5855C3.46921 96.8277 2.80029 94.1638 1.96882 91.2839C-0.313024 83.458 0.0651992 75.0812 0.727872 67.2335C1.1061 61.9307 1.52183 56.7156 1.23738 51.3345C1.11547 47.2964 0.430919 43.3365 0.0401926 39.3172C-0.309899 36.4247 1.67187 35.4418 4.23816 35.2321C12.7779 34.5309 21.0894 37.993 28.1288 42.5915C35.1681 46.9082 39.4223 54.324 41.4103 62.2156L41.4447 62.3314H41.4416Z" />
</svg>
